#!OML:ASF F:\VICON\USERDATA\INSTALL\rory3\rory3.ASF
:FULLY-SPECIFIED
:DEGREES
1
root 1.5049000000000028 17.8647 -28.57869999999997 -1.9241899999999998 -1.9251399999999999 2.2192599999999905
lfemur -2.69651 -1.6903300000000003 -27.498100000000015
ltibia 27.335299999999997
lfoot -16.069900000000022 2.2840600000000046
ltoes 0.6721430000000019
rfemur -32.185600000000036 -1.5858600000000052 20.263800000000003
rtibia 58.975999999999964
rfoot -10.6393 -7.80157
rtoes 1.5050500000000033
lowerback 1.0 -0.13136400000000029 -2.348769999999991
upperback 0.4010710000000005 -0.47829800000000094 0.4489709999999987
thorax -6.52368 -0.1549619999999994 1.8858299999999988
lowerneck -19.063399999999994 -3.332209999999999 -1.231749999999999
upperneck 23.5591 -4.334530000000001 0.030150799999999478
head 10.771499999999998 -2.0886000000000005 -0.42286199999999935
lclavicle -7.454429999999969e-17 -1.1927099999999967e-15
lhumerus -23.858700000000006 -2.7638299999999885 81.9731
lradius 29.9865
lwrist 7.337269999999994
lhand -31.131000000000007 24.0726
lfingers 7.12502
lthumb -4.409639999999998 54.0067
rclavicle -7.454429999999969e-17 -1.1927099999999967e-15
rhumerus -30.821 -22.824200000000005 -77.3456
rradius 23.653100000000002
rwrist 6.88412
rhand -18.3565 1.0
rfingers 7.12502
rthumb 7.9263 -7.31007
2
root 1.463769999999998 17.8732 -27.94129999999997 -1.3049 -1.35236 2.5240500000000097
lfemur 0.29802100000001985 -1.3634100000000002 -27.780299999999993
ltibia 24.72229999999999
lfoot -16.032999999999973 2.138420000000006
ltoes -1.0748099999999923
rfemur -33.23090000000001 -1.1225200000000108 19.504199999999997
rtibia 48.07899999999999
rfoot -9.0126 -8.973889999999997
rtoes 7.0975800000000016
lowerback 1.0 -1.1345799999999988 -3.6689100000000128
upperback -0.589080999999999 -1.9395100000000056 1.5097999999999998
thorax -7.439069999999996 -0.7699429999999975 4.040059999999999
lowerneck -15.6694 -2.526290000000001 -2.9579600000000013
upperneck 22.6741 -2.7702500000000008 -0.025608199999999637
head 9.82732 -1.5483200000000004 0.12534299999999998
lclavicle 1.918269999999996e-14 -1.1927099999999991e-14
lhumerus -25.013999999999996 -1.0501700000000036 82.3642
lradius 30.856599999999993
lwrist 6.759499999999992
lhand -28.3029 24.977
lfingers 7.12502
lthumb -1.6784899999999987 54.9501
rclavicle 1.918269999999996e-14 -1.1927099999999991e-14
rhumerus -32.691399999999994 -19.8817 -76.0582
rradius 23.6207
rwrist 6.32789
rhand -17.4215 1.0
rfingers 7.12502
rthumb 8.82862 -6.058319999999999
3
root 1.4021200000000027 17.9019 -27.29299999999995 -0.7630610000000018 -0.40911399999999765 3.0248900000000054
lfemur 4.100839999999968 -1.1151000000000006 -28.04660000000002
ltibia 20.66030000000002
lfoot -15.407400000000017 1.1289300000000027
ltoes -1.9817199999999904
rfemur -32.751799999999996 0.8643419999999962 17.808400000000002
rtibia 35.0146
rfoot -6.62438 -11.597299999999994
rtoes 0.9669859999999968
lowerback 1.0 -1.2606200000000032 -3.9109199999999937
upperback -0.03089469999999986 -2.138359999999997 1.142170000000001
thorax -6.49341 -0.9021350000000025 3.78153
lowerneck -16.989599999999996 -2.99134 -2.3711100000000003
upperneck 22.9594 -3.53823 -0.03580059999999874
head 10.1774 -1.84778 -0.10057099999999985
lclavicle 8.001079999999997e-15 -3.578119999999997e-15
lhumerus -22.307699999999993 -3.2786100000000116 82.104
lradius 31.214999999999986
lwrist 7.042530000000003
lhand -29.6378 24.4309
lfingers 7.12502
lthumb -2.967709999999997 54.39
rclavicle 8.001079999999997e-15 -3.578119999999997e-15
rhumerus -32.76339999999999 -21.9938 -75.8782
rradius 23.718999999999998
rwrist 5.939499999999999
rhand -16.616899999999994 1.0
rfingers 7.12502
rthumb 9.60497 -5.074540000000001
4
root 1.326640000000001 17.8874 -26.613500000000016 -0.3654200000000045 0.25173499999999627 3.412240000000005
lfemur 7.539960000000033 -0.8042849999999999 -28.040000000000017
ltibia 17.871700000000004
lfoot -14.899400000000016 0.20242100000000107
ltoes -3.599069999999997
rfemur -30.916699999999985 5.242669999999999 14.998099999999994
rtibia 22.077399999999997
rfoot -9.883340000000008 -14.268000000000004
rtoes 5.960619999999999
lowerback 1.0 -1.6862600000000014 -4.769839999999987
upperback -0.20159400000000058 -2.7935699999999972 1.4082800000000009
thorax -6.377820000000001 -1.1922000000000024 4.646659999999995
lowerneck -16.2194 -2.69961 -2.6550800000000008
upperneck 22.8419 -3.065440000000001 -0.07011549999999911
head 9.98875 -1.66226 0.01153000000000004
lclavicle 1.1976799999999994e-14 6.361109999999981e-15
lhumerus -21.72899999999998 -2.7110599999999887 82.004
lradius 31.411299999999997
lwrist 6.6457599999999974
lhand -29.783500000000004 25.3939
lfingers 7.12502
lthumb -3.1083900000000058 55.351
rclavicle 1.1976799999999994e-14 6.361109999999981e-15
rhumerus -33.3506 -21.810799999999997 -75.451
rradius 23.2217
rwrist 6.838429999999999
rhand -18.2852 1.0
rfingers 7.12502
rthumb 7.995029999999999 -6.7055299999999995
5
root 1.2376200000000002 17.8405 -25.91529999999996 -0.23188099999999556 1.532989999999994 3.7882600000000055
lfemur 10.208599999999995 -1.2840800000000008 -27.82399999999999
ltibia 17.020299999999985
lfoot -14.756800000000016 -1.3508000000000002
ltoes -6.53643
rfemur -28.90759999999998 9.199940000000005 12.07229999999997
rtibia 13.349100000000035
rfoot -11.620000000000008 -17.11110000000001
rtoes 0.4915969999999934
lowerback 1.0 -2.6044400000000003 -6.10146
upperback -0.8378709999999997 -4.175080000000001 2.17809
thorax -6.877060000000002 -1.7746300000000046 6.4812
lowerneck -14.014900000000004 -2.109550000000001 -3.640339999999997
upperneck 22.3085 -2.0129200000000003 -0.32614999999999905
head 9.38341 -1.29139 0.25215999999999983
lclavicle 2.3854200000000043e-14 -7.156250000000012e-15
lhumerus -22.735199999999992 -0.7481020000000047 82.3603
lradius 31.870800000000017
lwrist 6.619089999999995
lhand -29.943400000000004 24.6033
lfingers 7.12502
lthumb -3.262759999999997 54.558
rclavicle 2.3854200000000043e-14 -7.156250000000012e-15
rhumerus -34.747 -19.868 -74.4869
rradius 22.728300000000004
rwrist 7.300539999999999
rhand -18.0872 1.0
rfingers 7.12502
rthumb 8.18621 -5.893440000000002
6
root 1.1397099999999982 17.791 -25.205000000000076 -0.5698050000000028 2.2917700000000067 3.5890000000000075
lfemur 12.246800000000038 -2.3651399999999994 -27.16829999999999
ltibia 18.55300000000004
lfoot -14.5642 -2.4460000000000006
ltoes -11.140100000000015
rfemur -28.770899999999983 6.50111 13.699900000000005
rtibia 15.572900000000047
rfoot -9.850269999999997 -12.903100000000006
rtoes 2.46687
lowerback 1.0 -2.4263599999999945 -5.494640000000004
upperback -0.16885500000000006 -3.8691300000000086 1.82604
thorax -6.36776 -1.6908900000000022 5.692210000000007
lowerneck -15.4124 -2.5012600000000007 -2.8927400000000016
upperneck 22.6546 -2.7124900000000007 -0.22662800000000105
head 9.76711 -1.5398100000000003 0.055476199999999976
lclavicle 2.912200000000002e-14 1.5107600000000033e-14
lhumerus -21.094 -2.538619999999994 82.3347
lradius 31.916400000000007
lwrist 6.628130000000002
lhand -29.759599999999995 23.409
lfingers 7.12502
lthumb -3.085330000000004 53.3665
rclavicle 2.912200000000002e-14 1.5107600000000033e-14
rhumerus -34.66139999999999 -23.448700000000002 -73.68890000000002
rradius 21.54660000000001
rwrist 8.631919999999997
rhand -18.6201 1.0
rfingers 7.12502
rthumb 7.67185 -7.72915
7
root 1.0335500000000004 17.7517 -24.42849999999998 -0.8983220000000021 2.439220000000007 3.4289100000000072
lfemur 13.539999999999976 -3.234090000000001 -26.7107
ltibia 21.3579
lfoot -12.644599999999993 -3.709339999999998
ltoes -13.858899999999982
rfemur -29.057799999999983 4.580629999999999 15.683100000000003
rtibia 21.806200000000022
rfoot -8.667379999999998 -10.080500000000004
rtoes 2.847870000000003
lowerback 1.0 -2.423560000000007 -5.527549999999994
upperback -0.312095000000001 -3.877539999999992 1.94595
thorax -6.640119999999998 -1.6765300000000007 5.863529999999999
lowerneck -15.0297 -2.65496 -2.8414199999999985
upperneck 22.9779 -2.905909999999999 -0.4342679999999993
head 9.80842 -1.6520299999999999 -0.04783069999999993
lclavicle 4.5223499999999933e-14 -2.8625000000000023e-14
lhumerus -21.94990000000001 -2.5479600000000002 82.6953
lradius 32.019400000000005
lwrist 6.251420000000003
lhand -29.772700000000004 24.1339
lfingers 7.12502
lthumb -3.097970000000002 54.0912
rclavicle 4.5223499999999933e-14 -2.8625000000000023e-14
rhumerus -35.94609999999999 -25.5069 -71.87430000000002
rradius 20.15830000000001
rwrist 10.770800000000008
rhand -18.426 1.0
rfingers 7.12502
rthumb 7.859189999999999 -8.064319999999999
8
root 0.9263560000000007 17.8209 -23.582799999999985 -1.1004899999999984 2.8345399999999956 2.7479999999999905
lfemur 14.024100000000017 -4.207019999999996 -25.726700000000008
ltibia 25.04070000000001
lfoot -8.452710000000003 -5.609339999999994
ltoes -18.93980000000001
rfemur -28.74200000000002 5.429499999999999 16.790300000000013
rtibia 25.602400000000014
rfoot -4.724250000000001 -10.548700000000004
rtoes 3.0749100000000062
lowerback 1.0 -2.44094 -4.415200000000009
upperback -0.15937500000000046 -3.7194400000000045 1.88184
thorax -6.235080000000002 -1.6568500000000015 5.092839999999995
lowerneck -15.863 -2.7595 -2.485759999999999
upperneck 23.8323 -3.0962699999999996 -0.5289380000000016
head 10.2669 -1.7207500000000002 -0.18601900000000043
lclavicle 3.12589e-14 -4.770830000000006e-15
lhumerus -22.569699999999983 -2.4431000000000096 82.9074
lradius 31.713800000000006
lwrist 5.820770000000004
lhand -30.863199999999996 24.7825
lfingers 7.12502
lthumb -4.151080000000006 54.7218
rclavicle 3.12589e-14 -4.770830000000006e-15
rhumerus -37.36699999999999 -29.68120000000002 -69.3523
rradius 18.617499999999996
rwrist 14.061800000000002
rhand -18.217 1.0
rfingers 7.12502
rthumb 8.06091 -6.97053
9
root 0.8404099999999992 17.8596 -22.743300000000005 -1.629939999999999 1.9188699999999956 0.9425259999999966
lfemur 12.370199999999967 -3.2487499999999976 -23.419199999999996
ltibia 32.3457
lfoot -0.6981060000000037 -8.400880000000004
ltoes -18.91630000000002
rfemur -27.32380000000002 5.643170000000001 19.6586
rtibia 28.14739999999998
rfoot -1.3522099999999941 -6.143980000000001
rtoes 8.757300000000004
lowerback 1.0 -2.7711999999999954 -3.165879999999995
upperback -0.8522020000000013 -3.9158799999999983 3.0536499999999975
thorax -6.97456 -1.7371900000000047 5.704769999999994
lowerneck -13.400199999999995 -2.153039999999998 -3.406959999999997
upperneck 23.617499999999996 -1.9731299999999996 -1.0597000000000008
head 9.71885 -1.3506199999999988 -0.0376142999999998
lclavicle -3.766969999999995e-14 2.385419999999995e-15
lhumerus -26.306800000000003 1.4527299999999994 83.4711
lradius 31.706299999999995
lwrist 4.842070000000001
lhand -30.35300000000001 25.1727
lfingers 7.12502
lthumb -3.6583599999999947 55.1211
rclavicle -3.766969999999995e-14 2.385419999999995e-15
rhumerus -38.929300000000005 -29.787599999999987 -66.52090000000001
rradius 17.056499999999996
rwrist 16.403400000000023
rhand -20.702500000000004 1.0
rfingers 7.12502
rthumb 5.661590000000002 -10.870900000000004
